<svg width="301" height="205" viewBox="0 0 301 205" fill="none" xmlns="http://www.w3.org/2000/svg">
<path opacity="0.69" d="M295.23 204.055H5.02804C2.26262 204.055 0 201.792 0 199.027C0 196.261 2.26262 193.999 5.02804 193.999H295.272C298.037 193.999 300.3 196.261 300.3 199.027C300.258 201.792 298.037 204.055 295.23 204.055Z" fill="#3D233C"/>
<path d="M267.45 111.287H255.676V109.528C255.676 108.48 256.514 107.642 257.561 107.642H265.522C266.57 107.642 267.408 108.48 267.408 109.528V111.287H267.45Z" fill="#96628A"/>
<path d="M266.235 107.6H264.936C265.606 107.6 266.151 108.061 266.151 108.648V111.245H267.45V108.648C267.45 108.061 266.905 107.6 266.235 107.6Z" fill="#84517A"/>
<path d="M267.282 129.472H255.801C254.335 129.472 253.204 128.299 253.204 126.874V113.927C253.204 112.46 254.377 111.329 255.801 111.329H267.282C268.749 111.329 269.88 112.502 269.88 113.927V126.874C269.922 128.299 268.749 129.472 267.282 129.472Z" fill="#CC83B4"/>
<path d="M267.282 111.288H265.355C266.821 111.288 267.953 112.461 267.953 113.885V126.833C267.953 128.299 266.779 129.43 265.355 129.43H267.282C268.749 129.43 269.88 128.257 269.88 126.833V113.885C269.922 112.461 268.749 111.288 267.282 111.288Z" fill="#BC71A7"/>
<path d="M134.626 0H118.662V27.0257H134.626V0Z" fill="#AB8FB8"/>
<path d="M131.986 0H116.022V27.0257H131.986V0Z" fill="#DFCCE2"/>
<path opacity="0.82" d="M131.986 23.8833H116.022V26.6068H131.986V23.8833Z" fill="#A380AF"/>
<path opacity="0.82" d="M134.626 23.8833H131.986V26.6068H134.626V23.8833Z" fill="#A380AF"/>
<path d="M146.358 26.6069H110.198V43.7023H146.358V26.6069Z" fill="#AB8FB8"/>
<path d="M96.622 188.51L122.056 118.62L106.93 113.089L79.4429 188.51H96.622Z" fill="#AC91BA"/>
<path d="M90.0439 188.51L115.477 118.62L100.309 113.089L72.8647 188.51H90.0439Z" fill="#DFCCE2"/>
<path opacity="0.82" d="M106.134 115.226L100.309 113.089L89.2058 143.634H112.921L122.056 118.62L106.93 113.089L106.134 115.226Z" fill="#A380AF"/>
<path d="M83.6749 188.51H60.085V199.404H83.6749V188.51Z" fill="#DFCCE2"/>
<path d="M104.29 188.51H80.7V199.404H104.29V188.51Z" fill="#B39FC1"/>
<path d="M226.639 78.6468L223.538 79.4848C223.161 79.5686 222.91 79.9457 222.91 80.4066C222.742 82.7949 222.91 85.686 223.496 89.0799C224.879 97.1248 228.441 106.762 233.678 115.435C234.307 116.525 235.564 116.189 235.606 114.932C235.857 104.793 234.223 94.6527 231.457 86.9849C230.284 83.7586 229.027 81.1608 227.686 79.1496C227.393 78.7725 227.016 78.563 226.639 78.6468Z" fill="#F7CD84"/>
<path d="M231.457 86.9851C230.284 83.7588 229.027 81.1609 227.686 79.1497C227.435 78.7307 227.016 78.5631 226.681 78.6469L225.256 79.024C225.591 79.4849 226.01 79.9877 226.387 80.5743C226.387 80.5743 226.974 81.4961 227.561 82.5018C230.829 88.3259 232.086 93.6891 233.133 98.2563C233.888 101.525 234.181 103.829 234.726 108.438C234.935 110.03 235.438 114.388 234.893 116.022C235.27 115.896 235.605 115.519 235.605 114.891C235.857 104.835 234.223 94.6948 231.457 86.9851Z" fill="#F8B461"/>
<path d="M221.485 66.7892C221.485 66.6216 221.317 66.5797 221.192 66.6635C220.228 67.8367 217.924 71.1468 218.636 75.2112C218.72 75.6721 219.516 79.9459 222.742 81.4124C223.79 81.8733 224.586 81.8314 224.753 81.8314C226.681 81.7057 228.441 79.904 228.86 78.0185C229.404 75.5883 227.686 72.9904 225.843 71.9429C224.921 71.3982 224.083 71.3563 222.994 70.3088C221.904 69.3032 221.611 68.3395 221.569 68.13C221.443 67.6272 221.443 67.1663 221.485 66.7892Z" fill="#6F5A66"/>
<path d="M225.885 71.9431C224.963 71.3984 224.125 71.3565 223.035 70.309C221.946 69.3034 221.653 68.3397 221.611 68.1302C221.485 67.6693 221.485 67.2084 221.485 66.8732C221.485 66.7894 221.443 66.7056 221.359 66.7056C221.276 67.1246 221.192 67.7112 221.318 68.3816C221.359 68.633 221.569 69.6386 222.575 70.8118C223.622 71.985 224.46 72.1107 225.34 72.7811C227.1 74.0381 228.65 76.9292 227.896 79.4014C227.728 79.9042 227.519 80.3651 227.225 80.826C228.063 80.1137 228.692 79.1081 228.901 78.0606C229.404 75.5884 227.686 72.9906 225.885 71.9431Z" fill="#6B4C5F"/>
<path d="M222.993 70.3089C221.904 69.3033 221.611 68.3396 221.569 68.1301C221.443 67.6273 221.443 67.1664 221.443 66.8312C221.443 66.6636 221.276 66.6217 221.15 66.7055C220.27 67.7949 218.259 70.686 218.51 74.2894C218.51 74.2894 218.552 74.5827 218.552 74.6665V81.5801C218.552 81.9991 218.887 82.3762 219.348 82.3762C219.767 82.3762 220.144 82.041 220.144 81.5801V75.0436C220.144 74.7503 220.396 74.4989 220.689 74.4989C220.982 74.4989 221.234 74.7503 221.234 75.0436V76.2587C221.234 76.594 221.443 76.8873 221.778 76.9292C222.197 77.013 222.533 76.6778 222.533 76.2587V75.7978C222.533 75.295 222.491 74.038 223.371 73.8285C225.298 73.3676 225.34 73.0324 225.759 71.9011C224.921 71.3983 224.125 71.3564 222.993 70.3089Z" fill="#ED4A5E"/>
<path d="M268.232 199.027L272.422 199.027L272.422 136.176L268.232 136.176L268.232 199.027Z" fill="#DE6173"/>
<path d="M263.204 199.027L268.232 199.027L268.232 136.176L263.204 136.176L263.204 199.027Z" fill="#F37F82"/>
<path d="M265.732 184.697H241.43V190.144H265.732V184.697Z" fill="#DD6B80"/>
<path d="M265.732 136.176H241.43V152.936H265.732V136.176Z" fill="#DD6B80"/>
<path opacity="0.34" d="M260.871 143.886H258.86C258.148 143.886 257.603 143.341 257.603 142.629C257.603 141.916 258.148 141.372 258.86 141.372H260.871C261.584 141.372 262.129 141.916 262.129 142.629C262.129 143.299 261.584 143.886 260.871 143.886Z" fill="#F37F82"/>
<path opacity="0.34" d="M262.547 147.741H252.827C252.114 147.741 251.57 147.196 251.57 146.484C251.57 145.771 252.114 145.227 252.827 145.227H262.547C263.26 145.227 263.804 145.771 263.804 146.484C263.804 147.196 263.26 147.741 262.547 147.741Z" fill="#F37F82"/>
<path opacity="0.34" d="M255.341 143.886H249.6C248.888 143.886 248.343 143.341 248.343 142.629C248.343 141.916 248.888 141.372 249.6 141.372H255.341C256.053 141.372 256.598 141.916 256.598 142.629C256.598 143.299 256.053 143.886 255.341 143.886Z" fill="#F37F82"/>
<path d="M107.181 149.5L101.943 163.83H146.19V149.5H107.181Z" fill="#D1B9D6"/>
<path opacity="0.87" d="M107.181 149.5L101.943 163.83H104.793L110.03 149.5H107.181Z" fill="#A380AF"/>
<path d="M243.609 68.9676L241.597 68.6743L239.042 73.1996L244.74 74.0376L243.609 68.9676Z" fill="#C5E1DF"/>
<path d="M236.737 111.078L236.025 110.994C234.642 110.784 233.72 109.527 233.888 108.145L239.042 73.2417L244.698 74.0797L239.544 108.983C239.377 110.324 238.078 111.287 236.737 111.078Z" fill="#F7CD84"/>
<path d="M235.019 110.826C234.223 110.701 233.636 109.946 233.762 109.15L239.083 73.1997L240.55 73.4092L235.019 110.826Z" fill="#F8B461"/>
<path d="M237.743 111.204L243.274 73.7866L244.74 73.9961L239.419 109.947C239.293 110.785 238.539 111.329 237.743 111.204Z" fill="#F8B461"/>
<path d="M243.609 68.9678L243.148 66.8728C243.064 66.5795 242.771 66.4956 242.603 66.7889L241.556 68.6326L243.609 68.9678Z" fill="#6F5A66"/>
<path d="M243.609 68.9679L242.645 68.8003L243.274 73.8283L244.74 74.0378L243.609 68.9679Z" fill="#A5CECA"/>
<path d="M206.22 199.027L210.41 199.027L210.41 136.176L206.22 136.176L206.22 199.027Z" fill="#DE6173"/>
<path d="M201.192 199.027L206.22 199.027L206.22 136.176L201.192 136.176L201.192 199.027Z" fill="#F37F82"/>
<path d="M241.416 199.027L245.606 199.027L245.606 136.176L241.416 136.176L241.416 199.027Z" fill="#DE6173"/>
<path d="M236.388 199.027L241.416 199.027L241.416 136.176L236.388 136.176L236.388 199.027Z" fill="#F37F82"/>
<path d="M236.402 136.176H208.119V152.936H236.402V136.176Z" fill="#F37F82"/>
<path d="M236.402 184.697H208.119V190.144H236.402V184.697Z" fill="#F37F82"/>
<path d="M172.546 188.51L145.059 113.089L129.933 118.62L155.366 188.51H172.546Z" fill="#AC91BA"/>
<path d="M167.685 188.51L140.24 113.089L125.114 118.62L150.548 188.51H167.685Z" fill="#DFCCE2"/>
<path opacity="0.82" d="M145.059 113.089L140.785 114.639L140.24 113.089L125.114 118.62L134.207 143.634H156.204L145.059 113.089Z" fill="#A380AF"/>
<path d="M68.0041 138.481H59.9592V131.525C59.9592 129.011 62.0124 126.958 64.5264 126.958H68.046V138.481H68.0041Z" fill="#AB8FB8"/>
<path d="M184.697 138.481H59.9592V131.525C59.9592 129.011 62.0124 126.958 64.5264 126.958H184.738V138.481H184.697Z" fill="#DFCCE2"/>
<path d="M184.696 138.481H176.652V131.525C176.652 129.011 178.705 126.958 181.219 126.958H184.738V138.481H184.696Z" fill="#AB8FB8"/>
<path d="M177.322 43.7021H76.5938V126.958H177.322V43.7021Z" fill="#AB8FB8"/>
<g filter="url(#filter0_d)">
<path d="M170.953 43.7021H70.2249V126.958H170.953V43.7021Z" fill="#FFFDFF"/>
</g>
<path d="M163.788 188.51H140.198V199.404H163.788V188.51Z" fill="#DFCCE2"/>
<path d="M184.445 188.51H160.855V199.404H184.445V188.51Z" fill="#B39FC1"/>
<path d="M241.43 129.472H197.015V136.176H241.43V129.472Z" fill="#F37F82"/>
<path d="M274.95 129.472H241.43V136.176H274.95V129.472Z" fill="#DE6173"/>
<path d="M236.402 136.176H208.119V138.481H236.402V136.176Z" fill="#E26971"/>
<path d="M245.613 136.17L245.613 152.93L247.289 152.93L247.289 136.17L245.613 136.17Z" fill="#CE5F78"/>
<path d="M245.599 184.704L245.599 190.151L247.275 190.151L247.275 184.704L245.599 184.704Z" fill="#CE5F78"/>
<path d="M246.444 138.5L265.718 138.5L265.718 136.195L246.444 136.195L246.444 138.5Z" fill="#CE5F78"/>
<path d="M241.43 136.176H236.402V136.428H241.43V136.176Z" fill="#E26971"/>
<path d="M206.233 136.176H201.205V136.428H206.233V136.176Z" fill="#E26971"/>
<path d="M223.412 147.28C224.685 147.28 225.717 146.248 225.717 144.975C225.717 143.703 224.685 142.671 223.412 142.671C222.14 142.671 221.108 143.703 221.108 144.975C221.108 146.248 222.14 147.28 223.412 147.28Z" fill="#E26971"/>
<path d="M222.239 147.07C223.512 147.07 224.544 146.039 224.544 144.766C224.544 143.493 223.512 142.461 222.239 142.461C220.967 142.461 219.935 143.493 219.935 144.766C219.935 146.039 220.967 147.07 222.239 147.07Z" fill="#633047"/>
<path d="M221.62 144.542C222.104 144.499 222.468 144.146 222.433 143.754C222.399 143.363 221.978 143.08 221.494 143.123C221.01 143.166 220.646 143.519 220.681 143.911C220.716 144.302 221.136 144.585 221.62 144.542Z" fill="#F4CEE1"/>
<path opacity="0.4" d="M234.39 142.126H229.781C229.069 142.126 228.524 141.581 228.524 140.869C228.524 140.157 229.069 139.612 229.781 139.612H234.39C235.103 139.612 235.647 140.157 235.647 140.869C235.647 141.581 235.103 142.126 234.39 142.126Z" fill="#E26971"/>
<path opacity="0.4" d="M231.918 146.023H228.818C228.105 146.023 227.561 145.478 227.561 144.766C227.561 144.053 228.105 143.509 228.818 143.509H231.918C232.63 143.509 233.175 144.053 233.175 144.766C233.175 145.478 232.589 146.023 231.918 146.023Z" fill="#E26971"/>
<path opacity="0.2" d="M226.304 150.674H211.219C210.507 150.674 209.962 150.129 209.962 149.417C209.962 148.704 210.507 148.16 211.219 148.16H226.304C227.016 148.16 227.561 148.704 227.561 149.417C227.561 150.087 227.016 150.674 226.304 150.674Z" fill="#E26971"/>
<path opacity="0.39" d="M218.343 150.674H216.122C215.41 150.674 214.865 150.129 214.865 149.417C214.865 148.704 215.41 148.16 216.122 148.16H218.301C219.013 148.16 219.558 148.704 219.558 149.417C219.6 150.087 219.055 150.674 218.343 150.674Z" fill="#E26971"/>
<path opacity="0.4" d="M222.155 142.126H211.68C210.968 142.126 210.423 141.581 210.423 140.869C210.423 140.157 210.968 139.612 211.68 139.612H222.155C222.868 139.612 223.412 140.157 223.412 140.869C223.412 141.581 222.868 142.126 222.155 142.126Z" fill="#E26971"/>
<path d="M247.38 129.472H223.916C222.072 129.472 220.563 127.964 220.563 126.12V97.5441C220.563 96.8318 221.108 96.2871 221.82 96.2871H249.475C250.187 96.2871 250.732 96.8318 250.732 97.5441V126.12C250.732 127.964 249.223 129.472 247.38 129.472Z" fill="#EA3268"/>
<path opacity="0.69" d="M243.651 96.2871V126.12C243.651 127.964 242.142 129.472 240.299 129.472H247.422C249.265 129.472 250.774 127.964 250.774 126.12V97.5441C250.774 96.8318 250.229 96.2871 249.517 96.2871H243.651Z" fill="#AA235B"/>
<path d="M44.8752 166.386H26.6904V161.652C26.6904 160.604 27.5284 159.766 28.5759 159.766H42.9897C44.0372 159.766 44.8752 160.604 44.8752 161.652V166.386Z" fill="#F8B461"/>
<path d="M42.9897 159.766H40.9785C42.026 159.766 42.864 160.604 42.864 161.652V166.386H44.8752V161.652C44.8752 160.604 44.0372 159.766 42.9897 159.766Z" fill="#E29C50"/>
<path d="M46.0903 199.362H25.5173C24.0507 199.362 22.9194 198.189 22.9194 196.764V169.026C22.9194 167.56 24.0926 166.428 25.5173 166.428H46.0903C47.5568 166.428 48.6881 167.601 48.6881 169.026V196.722C48.6881 198.189 47.5149 199.362 46.0903 199.362Z" fill="#F7CD84"/>
<path d="M45.6294 166.386H42.1936C43.9115 166.386 45.2523 167.769 45.2523 169.445V196.261C45.2523 197.979 43.8696 199.32 42.1936 199.32H45.6294C47.3474 199.32 48.6882 197.937 48.6882 196.261V169.445C48.6882 167.769 47.3474 166.386 45.6294 166.386Z" fill="#F8B461"/>
<path d="M27.9474 175.437H27.6122C27.1094 175.437 26.6904 175.018 26.6904 174.515V166.428H28.8274V174.515C28.8274 175.018 28.4502 175.437 27.9474 175.437Z" fill="#ED4A5E"/>
<path d="M30.9643 166.386H28.8274V169.319H30.9643V166.386Z" fill="#ED4A5E"/>
<path d="M30.0844 170.451H29.7492C29.2464 170.451 28.8274 170.032 28.8274 169.529V168.817C28.8274 168.314 29.2464 167.895 29.7492 167.895H30.0844C30.5872 167.895 31.0062 168.314 31.0062 168.817V169.529C31.0062 170.032 30.5872 170.451 30.0844 170.451Z" fill="#F7CD84"/>
<path d="M32.2214 170.618H31.8862C31.3834 170.618 30.9644 170.199 30.9644 169.696V166.386H33.1013V169.696C33.1432 170.199 32.7242 170.618 32.2214 170.618Z" fill="#ED4A5E"/>
<path d="M140.408 26.6069H104.248V43.7023H140.408V26.6069Z" fill="#DFCCE2"/>
<path opacity="0.82" d="M124.905 39.4703C127.288 39.4703 129.221 37.5381 129.221 35.1546C129.221 32.7711 127.288 30.8389 124.905 30.8389C122.521 30.8389 120.589 32.7711 120.589 35.1546C120.589 37.5381 122.521 39.4703 124.905 39.4703Z" fill="#A380AF"/>
<path d="M123.774 39.4703C126.157 39.4703 128.089 37.5381 128.089 35.1546C128.089 32.7711 126.157 30.8389 123.774 30.8389C121.39 30.8389 119.458 32.7711 119.458 35.1546C119.458 37.5381 121.39 39.4703 123.774 39.4703Z" fill="#736177"/>
<path d="M48.6881 176.987H22.8774V187.965H48.6881V176.987Z" fill="#EA3268"/>
<path d="M48.7301 176.987H45.4619V187.965H48.7301V176.987Z" fill="#D33167"/>
<path d="M216.834 183.691C216.038 183.691 215.368 183.021 215.368 182.224C215.368 181.428 216.038 180.758 216.834 180.758H234.474V179.71H216.834C215.452 179.71 214.32 180.842 214.32 182.224C214.32 183.607 215.452 184.738 216.834 184.738H234.474V183.691H216.834Z" fill="#ED4A5E"/>
<path d="M216.834 183.691C216.038 183.691 215.368 183.021 215.368 182.225C215.368 181.429 216.038 180.758 216.834 180.758H233.678V183.691H216.834Z" fill="#F4E1E4"/>
<path opacity="0.2" d="M233.678 180.758H226.555V183.691H233.678V180.758Z" fill="#442228"/>
<path opacity="0.2" d="M234.474 179.71H226.555V180.716H234.474V179.71Z" fill="#442228"/>
<path opacity="0.2" d="M234.474 183.691H226.555V184.697H234.474V183.691Z" fill="#442228"/>
<path d="M12.4863 199.362C12.4863 197.854 13.7014 196.597 15.2518 196.597C16.8021 196.597 18.0172 197.812 18.0172 199.362H12.4863Z" fill="#ED4A5E"/>
<path d="M16.5923 199.362C16.5923 198.608 17.2208 197.979 17.975 197.979C18.7292 197.979 19.3577 198.608 19.3577 199.362H16.5923Z" fill="#E0445E"/>
<defs>
<filter id="filter0_d" x="66.2249" y="39.7021" width="108.728" height="91.256" filterUnits="userSpaceOnUse" color-interpolation-filters="sRGB">
<feFlood flood-opacity="0" result="BackgroundImageFix"/>
<feColorMatrix in="SourceAlpha" type="matrix" values="0 0 0 0 0 0 0 0 0 0 0 0 0 0 0 0 0 0 127 0"/>
<feOffset/>
<feGaussianBlur stdDeviation="2"/>
<feColorMatrix type="matrix" values="0 0 0 0 0 0 0 0 0 0 0 0 0 0 0 0 0 0 0.25 0"/>
<feBlend mode="normal" in2="BackgroundImageFix" result="effect1_dropShadow"/>
<feBlend mode="normal" in="SourceGraphic" in2="effect1_dropShadow" result="shape"/>
</filter>
</defs>
</svg>
