<svg width="500" height="500" viewBox="0 0 500 500" fill="none" xmlns="http://www.w3.org/2000/svg">
<path d="M250.17 473.2C377.361 473.2 480.47 413.672 480.47 340.24C480.47 266.808 377.361 207.28 250.17 207.28C122.979 207.28 19.8701 266.808 19.8701 340.24C19.8701 413.672 122.979 473.2 250.17 473.2Z" fill="#F5F5F5"/>
<path d="M121.13 58.6399L112.85 63.4099C112.898 63.0486 112.921 62.6844 112.92 62.3199V59.9199C112.92 55.6499 109.92 53.9199 106.24 56.0599C104.644 57.0299 103.278 58.3371 102.24 59.8899C101.64 54.5299 97.4301 52.5299 92.3201 55.4799C86.7901 58.6699 82.3201 66.4799 82.3201 72.8099V76.3999C82.2857 77.8298 82.5764 79.2488 83.1701 80.5499L76.3001 84.5499C75.2203 85.2528 74.3216 86.2005 73.6769 87.316C73.0323 88.4316 72.6599 89.6834 72.5901 90.9699C72.5901 93.3399 74.2501 94.2999 76.3001 93.1199L121.13 67.1999C122.21 66.4971 123.109 65.5494 123.753 64.4338C124.398 63.3183 124.77 62.0664 124.84 60.7799C124.84 58.4099 123.18 57.4499 121.13 58.6399Z" fill="#EBEBEB"/>
<path d="M156.53 82.74L150.29 86.34C150.322 86.0678 150.338 85.794 150.34 85.52V83.71C150.34 80.49 148.08 79.19 145.29 80.8C144.092 81.5339 143.068 82.5201 142.29 83.69C141.83 79.69 138.65 78.13 134.8 80.36C132.601 81.7927 130.77 83.7236 129.456 85.9962C128.143 88.2688 127.384 90.819 127.24 93.44V96.15C127.218 97.2279 127.437 98.2971 127.88 99.28L122.7 102.28C121.886 102.812 121.208 103.528 120.721 104.371C120.235 105.213 119.954 106.159 119.9 107.13C119.9 108.92 121.15 109.64 122.7 108.75L156.53 89.22C157.345 88.6879 158.023 87.9717 158.509 87.1291C158.995 86.2866 159.277 85.3414 159.33 84.37C159.33 82.57 158.08 81.85 156.53 82.74Z" fill="#EBEBEB"/>
<path d="M103.78 386.08L114.11 380.08C114.11 380.08 116.64 357.97 114.95 340.85C112.59 316.79 97.0498 287.85 78.5098 294.64C59.9698 301.43 86.9998 326 92.9998 346.39C98.9998 366.78 103.78 386.08 103.78 386.08Z" fill="#0B3178"/>
<path opacity="0.2" d="M103.78 386.08L114.11 380.08C114.11 380.08 116.64 357.97 114.95 340.85C112.59 316.79 97.0498 287.85 78.5098 294.64C59.9698 301.43 86.9998 326 92.9998 346.39C98.9998 366.78 103.78 386.08 103.78 386.08Z" fill="black"/>
<path d="M109.21 383.57C109.129 383.567 109.048 383.549 108.974 383.515C108.9 383.482 108.833 383.434 108.777 383.374C108.722 383.315 108.678 383.245 108.649 383.169C108.621 383.093 108.607 383.011 108.61 382.93C110.42 329.46 83.81 302.57 83.54 302.31C83.47 302.255 83.4124 302.186 83.371 302.108C83.3296 302.029 83.3052 301.943 83.2996 301.854C83.294 301.765 83.3072 301.676 83.3383 301.593C83.3695 301.51 83.4179 301.434 83.4804 301.371C83.5428 301.308 83.618 301.259 83.7008 301.226C83.7837 301.194 83.8724 301.18 83.9612 301.185C84.0499 301.189 84.1367 301.213 84.2157 301.253C84.2948 301.294 84.3644 301.351 84.42 301.42C84.69 301.68 111.69 328.97 109.86 382.97C109.857 383.052 109.838 383.133 109.804 383.208C109.77 383.283 109.721 383.35 109.661 383.406C109.6 383.462 109.529 383.505 109.452 383.534C109.374 383.562 109.292 383.574 109.21 383.57Z" fill="white"/>
<path d="M98.2699 390.35L105.62 386.11C105.62 386.11 106.87 370.94 99.4299 352.5C92.9499 336.5 76.8899 323.15 68.8099 325.94C60.7299 328.73 60.9199 334.47 64.8099 340.48C68.6999 346.49 92.7799 360.82 98.2699 390.35Z" fill="#0B3178"/>
<path d="M102.15 388.74C101.983 388.74 101.823 388.674 101.705 388.556C101.586 388.437 101.52 388.277 101.52 388.11C101.67 354.31 69.93 331.46 69.61 331.23C69.497 331.128 69.4257 330.987 69.4097 330.836C69.3937 330.684 69.434 330.532 69.5231 330.408C69.6122 330.285 69.7437 330.198 69.8925 330.165C70.0414 330.132 70.1971 330.155 70.33 330.23C70.65 330.46 102.92 353.69 102.77 388.14C102.765 388.301 102.697 388.454 102.582 388.566C102.466 388.678 102.311 388.74 102.15 388.74Z" fill="white"/>
<path d="M296.6 343.36L232.6 380.36L232.45 380.28L208.1 366.21C205.981 364.849 204.298 362.907 203.252 360.617C202.206 358.326 201.841 355.783 202.2 353.29L211.2 306.37L275.2 269.37L266.2 316.29C265.841 318.783 266.206 321.326 267.252 323.617C268.298 325.907 269.981 327.849 272.1 329.21L296.6 343.36Z" fill="#37474F"/>
<path d="M211.23 306.37L202.27 352.88L266.29 315.93L274.57 272.91L270.53 272.1L211.23 306.37Z" fill="#263238"/>
<path d="M232.58 380.35L208.09 366.21C205.973 364.847 204.292 362.905 203.246 360.615C202.2 358.325 201.834 355.782 202.19 353.29L211.19 306.37L200.52 300.2L190.2 353.88C188.83 360.98 192.84 369.75 199.1 373.36L232.55 392.67L232.58 380.35Z" fill="#263238"/>
<path d="M296.6 343.36L232.58 380.35V392.68L296.6 355.69V343.36Z" fill="#455A64"/>
<path d="M359.23 39.31C362.17 41.01 364.56 45.31 364.56 48.96V245.42C364.453 247.394 363.882 249.314 362.893 251.025C361.904 252.737 360.526 254.191 358.87 255.27L114 396.66C110.86 398.47 105.92 398.56 103 396.86C100.08 395.16 97.6602 390.86 97.6602 387.21V190.75C97.7682 188.775 98.3396 186.854 99.3281 185.141C100.317 183.428 101.694 181.972 103.35 180.89L348.2 39.51C351.34 37.69 356.28 37.6 359.23 39.31Z" fill="#455A64"/>
<path d="M113.32 397C110.18 398.47 105.71 398.44 102.96 396.86C100.01 395.16 97.6201 390.86 97.6201 387.21V190.75C97.6912 188.769 98.2659 186.838 99.2901 185.14L110 191.31C108.975 193.004 108.4 194.931 108.33 196.91V393.37C108.3 396.74 110.49 398.25 113.32 397Z" fill="#263238"/>
<path d="M364.56 245.42V49C364.56 45.37 362.02 43.9 358.87 45.71L114 187.06C112.344 188.139 110.966 189.593 109.977 191.305C108.988 193.016 108.417 194.936 108.31 196.91V393.37C108.31 397 110.86 398.47 114 396.66L358.87 255.27C360.526 254.191 361.904 252.737 362.893 251.025C363.882 249.314 364.453 247.394 364.56 245.42Z" fill="#37474F"/>
<path d="M352.06 55.7L118.19 190.8C116.866 191.664 115.764 192.827 114.973 194.196C114.183 195.565 113.726 197.101 113.64 198.68V373.11C113.64 376.01 115.64 377.19 118.19 375.74L352.07 240.64C353.394 239.776 354.496 238.613 355.287 237.244C356.077 235.875 356.534 234.339 356.62 232.76V58.33C356.62 55.43 354.58 54.25 352.06 55.7Z" fill="#0B3178"/>
<path opacity="0.8" d="M352.06 55.7L118.19 190.8C116.866 191.664 115.764 192.827 114.973 194.196C114.183 195.565 113.726 197.101 113.64 198.68V373.11C113.64 376.01 115.64 377.19 118.19 375.74L352.07 240.64C353.394 239.776 354.496 238.613 355.287 237.244C356.077 235.875 356.534 234.339 356.62 232.76V58.33C356.62 55.43 354.58 54.25 352.06 55.7Z" fill="white"/>
<path d="M130.31 354.29C129.07 354.29 128.31 353.29 128.31 351.58V213.44L341.93 90.12V227.68C341.846 229.146 341.42 230.572 340.685 231.843C339.951 233.114 338.928 234.196 337.7 235L132.06 353.74C131.534 354.072 130.931 354.262 130.31 354.29Z" fill="#F5F5F5"/>
<path d="M341.43 91V227.7C341.345 229.082 340.94 230.425 340.245 231.623C339.551 232.82 338.587 233.84 337.43 234.6L131.81 353.31C131.359 353.594 130.843 353.76 130.31 353.79C128.97 353.79 128.83 352.25 128.83 351.58V213.73L341.43 91ZM342.43 89.27L127.83 213.17V351.58C127.83 353.58 128.83 354.79 130.31 354.79C131.02 354.765 131.71 354.551 132.31 354.17L337.94 235.45C339.247 234.599 340.335 233.452 341.115 232.102C341.895 230.752 342.346 229.237 342.43 227.68V89.25V89.27Z" fill="#E0E0E0"/>
<path d="M127.83 213.15V232.58L342.43 108.68V89.25L127.83 213.15Z" fill="#0B3178"/>
<path d="M262.48 143V147.18C262.48 148.03 263.09 148.38 263.83 147.96L329.83 109.86V102.6L263.83 140.7C263.443 140.953 263.12 141.293 262.885 141.692C262.651 142.091 262.513 142.538 262.48 143Z" fill="#FAFAFA"/>
<path d="M336.88 98.5199C337.62 98.0899 338.22 98.44 338.22 99.3V103.48C338.193 103.946 338.058 104.399 337.826 104.803C337.593 105.208 337.269 105.553 336.88 105.81L329.81 109.89V102.6L336.88 98.5199Z" fill="#455A64"/>
<path d="M336.35 104.25L335.57 104.01C335.648 103.682 335.688 103.347 335.69 103.01C335.726 102.692 335.678 102.369 335.552 102.075C335.426 101.78 335.225 101.524 334.97 101.33C334.797 101.225 334.598 101.169 334.395 101.169C334.192 101.169 333.994 101.225 333.82 101.33C333.318 101.714 332.914 102.211 332.641 102.781C332.368 103.351 332.234 103.978 332.25 104.61C332.215 104.93 332.262 105.253 332.388 105.549C332.514 105.846 332.715 106.104 332.97 106.3C333.122 106.386 333.295 106.431 333.47 106.43C333.7 106.427 333.925 106.361 334.12 106.24C334.719 105.828 335.165 105.231 335.39 104.54L336.18 104.78H336.27C336.333 104.779 336.394 104.758 336.444 104.72C336.494 104.682 336.531 104.63 336.55 104.57C336.557 104.502 336.541 104.434 336.504 104.376C336.468 104.318 336.414 104.274 336.35 104.25ZM333.82 105.77C333.735 105.82 333.639 105.847 333.54 105.847C333.442 105.847 333.345 105.82 333.26 105.77C333.1 105.622 332.977 105.437 332.902 105.232C332.827 105.027 332.802 104.807 332.83 104.59C332.822 104.061 332.933 103.537 333.157 103.057C333.38 102.577 333.71 102.154 334.12 101.82C334.225 101.753 334.346 101.715 334.47 101.71C334.539 101.694 334.611 101.694 334.68 101.71C334.839 101.86 334.96 102.044 335.035 102.249C335.109 102.454 335.135 102.673 335.11 102.89C335.132 103.437 335.028 103.982 334.804 104.482C334.58 104.981 334.243 105.422 333.82 105.77Z" fill="#FAFAFA"/>
<path d="M127.83 203.76C127.913 202.204 128.361 200.689 129.14 199.339C129.918 197.988 131.004 196.841 132.31 195.99L337.94 77.2699C340.42 75.8399 342.43 76.9999 342.43 79.8599V89.2499L127.83 213.15V203.76Z" fill="#37474F"/>
<path d="M317.18 94.0999C316.569 94.4992 316.06 95.0368 315.695 95.6691C315.331 96.3015 315.12 97.0109 315.08 97.7399C315.08 99.0899 316.02 99.6299 317.18 98.9599C317.796 98.5619 318.308 98.0236 318.675 97.389C319.041 96.7545 319.252 96.0419 319.29 95.3099C319.29 93.9999 318.35 93.4299 317.18 94.0999Z" fill="#0B3178"/>
<path d="M324.55 89.8599C323.936 90.2569 323.424 90.7937 323.058 91.4264C322.691 92.0591 322.479 92.7696 322.44 93.4999C322.44 94.8399 323.38 95.3899 324.55 94.7199C325.163 94.3196 325.672 93.7805 326.037 93.1462C326.402 92.512 326.612 91.8006 326.65 91.0699C326.65 89.7299 325.71 89.1899 324.55 89.8599Z" fill="#0B3178"/>
<path d="M331.91 85.6199C331.299 86.0192 330.79 86.5568 330.425 87.1892C330.061 87.8216 329.85 88.531 329.81 89.2599C329.81 90.5999 330.75 91.1499 331.91 90.4799C332.522 90.0791 333.031 89.5398 333.396 88.9057C333.761 88.2716 333.971 87.5605 334.01 86.8299C334 85.4899 333.07 84.9999 331.91 85.6199Z" fill="#0B3178"/>
<path d="M221.91 217.72L248.35 202.46C250.02 201.46 251.35 202.27 251.35 204.21V234.73C251.295 235.779 250.995 236.8 250.474 237.711C249.953 238.623 249.226 239.4 248.35 239.98L221.91 255.24C220.24 256.24 218.91 255.42 218.91 253.49V223C218.958 221.946 219.255 220.918 219.777 220C220.298 219.082 221.029 218.301 221.91 217.72Z" fill="#0B3178"/>
<path d="M229.17 255.74L245.17 246.52C246.37 245.82 247.33 246.32 247.33 247.61C247.276 248.337 247.053 249.041 246.677 249.666C246.302 250.291 245.786 250.82 245.17 251.21L229.17 260.43C227.97 261.12 227 260.63 227 259.34C227.053 258.611 227.277 257.906 227.654 257.28C228.031 256.655 228.551 256.127 229.17 255.74Z" fill="#455A64"/>
<path d="M234.9 216.6C237.71 214.98 239.98 216.29 239.98 219.53C239.885 221.292 239.376 223.006 238.493 224.534C237.61 226.061 236.379 227.358 234.9 228.32C232.1 229.94 229.83 228.63 229.83 225.39C229.925 223.629 230.434 221.916 231.315 220.389C232.195 218.862 233.424 217.564 234.9 216.6Z" fill="#FAFAFA"/>
<path d="M244.91 233.91C244.91 228.6 241.17 226.23 236.57 228.91L233.69 230.58C229.08 233.24 225.35 239.7 225.35 245.02V246.45L244.91 235.17V233.91Z" fill="#FAFAFA"/>
<path d="M270.68 189.54L297.11 174.28C298.79 173.28 300.11 174.09 300.11 176.03V206.55C300.057 207.599 299.757 208.621 299.236 209.533C298.715 210.445 297.987 211.221 297.11 211.8L270.68 227.06C269.01 228.06 267.68 227.24 267.68 225.31V194.79C267.734 193.741 268.033 192.719 268.554 191.807C269.075 190.895 269.804 190.119 270.68 189.54Z" fill="#0B3178"/>
<path opacity="0.2" d="M270.68 189.54L297.11 174.28C298.79 173.28 300.11 174.09 300.11 176.03V206.55C300.057 207.599 299.757 208.621 299.236 209.533C298.715 210.445 297.987 211.221 297.11 211.8L270.68 227.06C269.01 228.06 267.68 227.24 267.68 225.31V194.79C267.734 193.741 268.033 192.719 268.554 191.807C269.075 190.895 269.804 190.119 270.68 189.54Z" fill="black"/>
<path d="M277.94 227.56L293.94 218.34C295.13 217.65 296.1 218.14 296.1 219.43C296.048 220.157 295.825 220.862 295.45 221.488C295.074 222.113 294.557 222.641 293.94 223.03L277.94 232.25C276.74 232.94 275.77 232.45 275.77 231.16C275.823 230.431 276.047 229.726 276.424 229.1C276.801 228.475 277.321 227.947 277.94 227.56Z" fill="#455A64"/>
<path d="M283.67 188.42C286.48 186.8 288.75 188.11 288.75 191.35C288.656 193.112 288.147 194.827 287.264 196.354C286.381 197.882 285.15 199.179 283.67 200.14C280.87 201.76 278.6 200.45 278.6 197.21C278.696 195.45 279.205 193.737 280.086 192.21C280.966 190.683 282.194 189.384 283.67 188.42Z" fill="#FAFAFA"/>
<path d="M293.68 205.73C293.68 200.42 289.94 198.05 285.34 200.73L282.46 202.4C277.85 205.06 274.12 211.52 274.12 216.84V218.27L293.68 207V205.73Z" fill="#FAFAFA"/>
<path d="M173.19 245.83L199.63 230.57C201.3 229.57 202.63 230.39 202.63 232.32V262.84C202.577 263.889 202.278 264.911 201.757 265.823C201.236 266.735 200.507 267.512 199.63 268.09L173.19 283.35C171.52 284.35 170.19 283.54 170.19 281.6V251.08C170.245 250.031 170.545 249.01 171.066 248.098C171.587 247.187 172.315 246.41 173.19 245.83Z" fill="#0B3178"/>
<path opacity="0.5" d="M173.19 245.83L199.63 230.57C201.3 229.57 202.63 230.39 202.63 232.32V262.84C202.577 263.889 202.278 264.911 201.757 265.823C201.236 266.735 200.507 267.512 199.63 268.09L173.19 283.35C171.52 284.35 170.19 283.54 170.19 281.6V251.08C170.245 250.031 170.545 249.01 171.066 248.098C171.587 247.187 172.315 246.41 173.19 245.83Z" fill="white"/>
<path d="M180.45 283.85L196.45 274.63C197.65 273.94 198.61 274.43 198.61 275.72C198.558 276.447 198.335 277.152 197.96 277.778C197.584 278.403 197.067 278.931 196.45 279.32L180.45 288.54C179.25 289.23 178.28 288.74 178.28 287.45C178.333 286.721 178.557 286.016 178.934 285.39C179.311 284.765 179.831 284.237 180.45 283.85Z" fill="#455A64"/>
<path d="M186.18 244.71C188.99 243.09 191.26 244.41 191.26 247.64C191.165 249.403 190.656 251.119 189.773 252.648C188.891 254.177 187.66 255.476 186.18 256.44C183.38 258.05 181.11 256.74 181.11 253.5C181.206 251.74 181.715 250.027 182.596 248.5C183.476 246.973 184.704 245.674 186.18 244.71Z" fill="#FAFAFA"/>
<path d="M196.19 262C196.19 256.68 192.45 254.32 187.85 257L185 258.67C180.39 261.33 176.66 267.8 176.66 273.12V274.55L196.22 263.26L196.19 262Z" fill="#FAFAFA"/>
<path d="M426.68 182.63L416.06 176.5C405.35 170.5 390.67 171.35 374.4 180.74C359.18 189.51 345.3 204.15 334.84 221.09C322.74 240.59 315.13 263.17 315.13 283.41C315.13 302.29 321.74 315.53 332.43 321.74L343.16 327.89C353.96 334.77 369.16 334.16 386.16 324.4C418.9 305.49 445.44 259.52 445.44 221.72C445.4 202 438.2 188.47 426.68 182.63Z" fill="#0B3178"/>
<path opacity="0.1" d="M342.74 327.64L332.43 321.74C321.74 315.54 315.14 302.28 315.14 283.4C315.14 263.16 322.75 240.6 334.84 221.1L346.52 227.89C334.42 247.39 326.83 269.94 326.83 290.16C326.83 308.21 332.87 321.11 342.74 327.64Z" fill="black"/>
<path opacity="0.4" d="M426.25 182.38C415.69 177.26 401.6 178.56 386.13 187.48C370.89 196.29 357.01 210.94 346.52 227.89L334.84 221.1C345.31 204.1 359.2 189.52 374.41 180.75C390.67 171.35 405.36 170.46 416.08 176.5L426.25 182.38Z" fill="white"/>
<path d="M359.53 324.48C355.22 324.57 350.975 323.41 347.31 321.14L347.14 321.03L346.8 320.84C338.99 315.52 334.69 304.64 334.69 290.15C334.69 272.15 341.42 251.04 353.17 232.15C363.37 215.67 376.44 202.28 389.99 194.45C397.94 189.86 405.72 187.45 412.46 187.45C415.884 187.399 419.277 188.113 422.39 189.54L422.75 189.74L422.93 189.83C432.04 194.44 437.26 206.08 437.26 221.77C437.26 256.98 412.46 299.93 381.97 317.52C374 322.06 366.27 324.48 359.53 324.48Z" fill="#FAFAFA"/>
<path d="M388.72 267.49C373.63 271.49 361.39 262.57 361.39 247.49V237.82C361.39 225.03 371.76 211.89 384.55 208.46L392.88 206.23C405.67 202.8 416.04 210.39 416.04 223.18V232.85C416 247.93 403.81 263.44 388.72 267.49Z" fill="#263238"/>
<path d="M347 361C347.1 359.4 349.65 341.9 351.41 332L368.53 333.47L362.29 369.56L351.06 368.83C346.58 369 346.93 362.58 347 361Z" fill="#FFA8A7"/>
<path d="M425.87 305.61L437.93 343.36L422.85 351.62L413.81 316.11L425.87 305.61Z" fill="#FFA8A7"/>
<path d="M399.47 273.28C407.47 271.28 416.34 272.28 419.38 278.68C422.42 285.08 429.07 308.07 429.07 308.07C424.933 313.645 418.876 317.489 412.07 318.86L399.47 273.28Z" fill="#0B3178"/>
<path opacity="0.3" d="M399.47 273.28C407.47 271.28 416.34 272.28 419.38 278.68C422.42 285.08 429.07 308.07 429.07 308.07C424.933 313.645 418.876 317.489 412.07 318.86L399.47 273.28Z" fill="black"/>
<path d="M382.85 278.06L376.17 280.17C368.9 284.17 366.28 290.59 363.23 298.86C361.004 304.732 360.8 311.179 362.65 317.18L371.16 343.33C371.16 343.33 367.16 355.51 362.55 367.26C383.9 375.26 410.55 360.92 416.98 349.16C417.26 346.95 416.89 337.45 417.4 326.39C417.96 314.59 419.34 301.07 417.76 294.29C414.81 281.72 409.3 270.65 398.32 273.59L382.85 278.06Z" fill="#F5F5F5"/>
<path d="M376.17 280.17C368.89 283.31 358.17 287.87 354.5 308.86C350.76 330.13 350.04 335.15 350.04 335.15C350.04 335.15 356.41 340.78 368.5 337.47C368.5 337.47 379.16 294.82 376.17 280.17Z" fill="#0B3178"/>
<path opacity="0.3" d="M376.17 280.17C368.89 283.31 358.17 287.87 354.5 308.86C350.76 330.13 350.04 335.15 350.04 335.15C350.04 335.15 356.41 340.78 368.5 337.47C368.5 337.47 379.16 294.82 376.17 280.17Z" fill="black"/>
<path d="M364.82 308.48C373.37 306.19 380.31 297.4 380.31 288.85V261.35C371.75 263.65 364.82 272.44 364.82 280.99V308.48Z" fill="#263238"/>
<path d="M368.82 336.15C370.17 330.48 371.59 324.03 372.93 317.15C372.93 317.15 372.87 331.37 370.77 342.15L368.82 336.15Z" fill="#E0E0E0"/>
<path d="M407.07 215.18C409.95 216.37 413.52 223.8 413.17 241.47C412.87 256.47 408.69 261.24 406.59 262.86C404.49 264.48 400.44 264.92 396.51 265.22V274.16C396.51 274.16 401.95 280 401.6 284.16C401.25 288.32 393.75 291.33 388.66 288.69C385.299 286.761 382.439 284.068 380.31 280.83V259.25C380.31 259.25 377.65 264.06 373.31 261.89C368.97 259.72 368.8 251.52 371.31 247.89C373.82 244.26 379.31 243.73 380.31 247.55C380.31 247.55 386.58 246.14 394.94 238.55C401.646 232.459 405.949 224.169 407.07 215.18Z" fill="#FFA8A7"/>
<path d="M398.77 241.58C398.793 242.097 398.658 242.608 398.383 243.046C398.108 243.484 397.706 243.827 397.23 244.03C396.34 244.31 395.57 243.69 395.53 242.63C395.504 242.114 395.637 241.603 395.911 241.165C396.184 240.727 396.585 240.383 397.06 240.18C398 239.9 398.72 240.52 398.77 241.58Z" fill="#263238"/>
<path d="M399.2 254.09L402.97 254.47C402.877 255.064 402.583 255.609 402.137 256.013C401.692 256.417 401.121 256.656 400.52 256.69C399.48 256.58 398.89 255.42 399.2 254.09Z" fill="#F28F8F"/>
<path d="M412.07 232.27L408.78 230.52C409.38 229.28 410.6 228.66 411.51 229.15C412.42 229.64 412.66 231 412.07 232.27Z" fill="#263238"/>
<path d="M411.31 236.87C411.335 237.386 411.201 237.897 410.926 238.333C410.65 238.77 410.246 239.111 409.77 239.31C408.88 239.6 408.12 238.97 408.07 237.91C408.045 237.396 408.178 236.886 408.452 236.45C408.726 236.014 409.126 235.672 409.6 235.47C410.5 235.18 411.26 235.81 411.31 236.87Z" fill="#263238"/>
<path d="M403.66 237.85L403.92 249.05L409.05 245.84L403.66 237.85Z" fill="#F28F8F"/>
<path d="M396.51 265.22C392.36 265.7 383.83 265.16 382.51 261.62C382.978 263.324 384.043 264.804 385.51 265.79C388.06 267.63 396.51 268.2 396.51 268.2V265.22Z" fill="#F28F8F"/>
<path d="M371.56 306.12L363.39 301.4H363.3C359.24 299.1 353.67 299.4 347.5 303C341.73 306.33 336.5 311.88 332.5 318.3C327.92 325.7 325.03 334.3 325.03 341.94C325.03 349.09 327.54 354.12 331.59 356.47L339.89 361.21C343.98 363.82 349.76 363.59 356.18 359.88C368.59 352.71 378.66 335.28 378.66 320.95C378.66 313.47 375.93 308.33 371.56 306.12Z" fill="#37474F"/>
<path d="M339.72 361.1L331.59 356.46C327.53 354.11 325.03 349.08 325.03 341.92C325.03 334.25 327.91 325.69 332.5 318.3L341.18 323.3C336.59 330.7 333.71 339.24 333.71 346.91C333.69 353.73 336 358.63 339.72 361.1Z" fill="#263238"/>
<path d="M371.39 306C367.39 304.06 362.05 304.55 356.18 307.94C350.31 311.33 345.18 316.83 341.18 323.26L332.5 318.26C336.5 311.83 341.74 306.26 347.5 302.96C353.67 299.4 359.24 299.06 363.3 301.35H363.39L371.39 306Z" fill="#455A64"/>
<path d="M365.93 325.27L358.44 329.6V317.6C358.44 315.67 357.44 314.7 356.18 315.42C354.92 316.14 353.92 318.28 353.92 320.21V332.21L346.42 336.54C345.8 337.033 345.301 337.661 344.963 338.378C344.625 339.094 344.456 339.878 344.47 340.67C344.47 342.33 345.35 343.17 346.42 342.54L353.92 338.22V350.22C353.92 352.15 354.92 353.12 356.18 352.4C357.44 351.68 358.44 349.53 358.44 347.61V335.61L365.93 331.28C366.552 330.789 367.052 330.161 367.39 329.444C367.728 328.727 367.896 327.942 367.88 327.15C367.88 325.49 367 324.65 365.93 325.27Z" fill="#F5F5F5"/>
</svg>
