<svg width="56" height="56" viewBox="0 0 56 56" fill="none" xmlns="http://www.w3.org/2000/svg">
<rect width="56" height="56" rx="28" fill="#0B3178" fill-opacity="0.1"/>
<path d="M38 30.506C34.9119 31.7561 31.5363 32.4444 28 32.4444C24.4637 32.4444 21.0881 31.7561 18 30.506M32.4444 22.4444V20.2222C32.4444 18.9949 31.4495 18 30.2222 18H25.7778C24.5505 18 23.5556 18.9949 23.5556 20.2222V22.4444M28 29.1111H28.0111M20.2222 38H35.7778C37.0051 38 38 37.0051 38 35.7778V24.6667C38 23.4394 37.0051 22.4444 35.7778 22.4444H20.2222C18.9949 22.4444 18 23.4394 18 24.6667V35.7778C18 37.0051 18.9949 38 20.2222 38Z" stroke="#0B3178" stroke-width="2" stroke-linecap="round" stroke-linejoin="round"/>
</svg>
