<svg width="21" height="19" viewBox="0 0 21 19" fill="none" xmlns="http://www.w3.org/2000/svg">
<path d="M2.5 1V0H1.5V1H2.5ZM18.5 1H19.5V0H18.5V1ZM4.79289 8.29289C4.40237 8.68342 4.40237 9.31658 4.79289 9.70711C5.18342 10.0976 5.81658 10.0976 6.20711 9.70711L4.79289 8.29289ZM8.5 6L9.20711 5.29289C8.81658 4.90237 8.18342 4.90237 7.79289 5.29289L8.5 6ZM11.5 9L10.7929 9.70711C11.1834 10.0976 11.8166 10.0976 12.2071 9.70711L11.5 9ZM16.2071 5.70711C16.5976 5.31658 16.5976 4.68342 16.2071 4.29289C15.8166 3.90237 15.1834 3.90237 14.7929 4.29289L16.2071 5.70711ZM5.79289 17.2929C5.40237 17.6834 5.40237 18.3166 5.79289 18.7071C6.18342 19.0976 6.81658 19.0976 7.20711 18.7071L5.79289 17.2929ZM10.5 14L11.2071 13.2929C10.8166 12.9024 10.1834 12.9024 9.79289 13.2929L10.5 14ZM13.7929 18.7071C14.1834 19.0976 14.8166 19.0976 15.2071 18.7071C15.5976 18.3166 15.5976 17.6834 15.2071 17.2929L13.7929 18.7071ZM1.5 0C0.947715 0 0.5 0.447715 0.5 1C0.5 1.55228 0.947715 2 1.5 2V0ZM19.5 2C20.0523 2 20.5 1.55228 20.5 1C20.5 0.447715 20.0523 0 19.5 0V2ZM2.5 2H18.5V0H2.5V2ZM17.5 1V13H19.5V1H17.5ZM17.5 13H3.5V15H17.5V13ZM3.5 13V1H1.5V13H3.5ZM3.5 13H1.5C1.5 14.1046 2.39543 15 3.5 15V13ZM17.5 13V15C18.6046 15 19.5 14.1046 19.5 13H17.5ZM6.20711 9.70711L9.20711 6.70711L7.79289 5.29289L4.79289 8.29289L6.20711 9.70711ZM7.79289 6.70711L10.7929 9.70711L12.2071 8.29289L9.20711 5.29289L7.79289 6.70711ZM12.2071 9.70711L16.2071 5.70711L14.7929 4.29289L10.7929 8.29289L12.2071 9.70711ZM7.20711 18.7071L11.2071 14.7071L9.79289 13.2929L5.79289 17.2929L7.20711 18.7071ZM9.79289 14.7071L13.7929 18.7071L15.2071 17.2929L11.2071 13.2929L9.79289 14.7071ZM1.5 2H19.5V0H1.5V2Z" fill="#0B3178"/>
</svg>
